# xmcd
#
# Track frame offsets: 
#        150
#        17033
#        35354
#        47710
#        64550
#        77791
#        88679
#        104956
#        122511
#        134901
#        153257
#        169246
#
# Disc length: 2408 seconds
#
# Revision: 0
# Processed by: cddbd v1.5.2PL0 Copyright (c) Steve Scherf et al.
# Submitted via: ExactAudioCopyFreeDBPlugin 1.0
#
DISCID=a109660c
DTITLE=Gene Taylor - Roadhouse Memories
DYEAR=2013
DGENRE=Blues
TTITLE0=Chicken Shack Boogie
TTITLE1=Six Weeks Old
TTITLE2=Matchbox
TTITLE3=It's All Over Now
TTITLE4=Walking To New Orleans
TTITLE5=Oh My Dear
TTITLE6=Feeling Sad
TTITLE7=Junco Partner
TTITLE8=Little Ole Wine Drinker Me
TTITLE9=TV Mama
TTITLE10=Moonlight Rider
TTITLE11=Don't Take It So Hard
EXTD=
EXTT0=
EXTT1=
EXTT2=
EXTT3=
EXTT4=
EXTT5=
EXTT6=
EXTT7=
EXTT8=
EXTT9=
EXTT10=
EXTT11=
PLAYORDER=
